<?xml version="1.0" encoding="UTF-8"?>
<svg id="Layer_1" data-name="Layer 1" xmlns="http://www.w3.org/2000/svg" viewBox="0 0 527.72 507.03">
  <defs>
    <style>
      .cls-1 {
        fill: #e8056b;
      }

      .cls-2 {
        fill: #edf718;
      }

      .cls-3 {
        fill: #070606;
      }

      .cls-4 {
        fill: #4e9cc7;
      }
    </style>
  </defs>
  <path class="cls-3" d="M0,323.26c.93-.41.49-1.35.58-1.95.53-3.53,1.66-6.88,2.75-10.25.63-1.97,1.16-3.97,1.78-5.94.77-2.44,1.61-4.86,2.39-7.3,1.44-4.48,3.16-8.84,5.13-13.11,1.6-3.47,3.42-6.85,5.4-10.11,2.63-4.33,5.51-8.48,8.55-12.54,2.85-3.8,5.9-7.42,8.92-11.08,1.74-2.11,3.62-4.12,5.46-6.15,2.77-3.05,5.66-5.99,8.48-9,3.49-3.72,7.12-7.31,10.77-10.86,1.82-1.77,3.61-3.59,5.47-5.31,2.5-2.31,5.06-4.57,7.53-6.92,3.77-3.59,7.72-6.95,11.78-10.2,3.48-2.78,6.95-5.55,10.58-8.14,3.84-2.74,7.52-5.71,11.38-8.42,5.25-3.69,10.56-7.31,15.94-10.82,4.56-2.97,9.05-6.04,13.68-8.92,4.1-2.56,8.17-5.16,12.24-7.77,5.55-3.55,11.18-6.96,16.8-10.4,5.13-3.13,10.29-6.22,15.43-9.32.02-.01.03-.06.09-.18-2.35-.22-4.64-.58-6.97-.77-4.09-.33-8.19-.7-12.29-.6-4.54.1-9.08.43-13.62.7-3.14.19-6.27.17-9.4.12-3.06-.04-6.13-.28-9.17-.66-2.81-.35-5.59-.99-8.37-1.52-3.68-.7-7.14-2.02-10.45-3.73-3.75-1.94-6.82-4.58-8.81-8.39-.95-1.82-1.37-3.72-1.58-5.75-.43-4.11.08-8.12,1.18-12.04.92-3.28,2.04-6.51,3.48-9.64,1.94-4.24,4.23-8.28,6.72-12.21,2.65-4.2,5.68-8.15,8.77-12.03,2.5-3.14,5.19-6.12,7.89-9.09,2.03-2.24,4.18-4.35,6.45-6.32,2.8-2.43,5.56-4.9,8.46-7.22,5.6-4.48,11.27-8.86,17.26-12.82,2.6-1.72,5.22-3.4,7.86-5.06,3.37-2.12,6.84-4.05,10.41-5.79,5.61-2.73,11.34-5.23,17.48-6.54,2.35-.5,4.7-1.05,7.13-1.26,2.62-.23,5.24-.32,7.78.12,3.93.68,7.89,1.38,11.58,3.07,2.5,1.14,4.86,2.45,6.94,4.27,3.44,3.02,5.76,6.68,6.98,11.14.86,3.13,1.03,6.28.79,9.43-.25,3.3-.55,6.67-2.61,9.52-.93,1.29-2.17,2.22-3.38,3.22-3.41,2.82-7.62,3.59-11.7,4.6-4.09,1.01-8.28,1.74-12.53,1.35-2.42-.22-4.83-.73-6.83-2.28-1.99-1.55-2.23-4.17-.91-6.62,1.91-3.55,3.91-7.07,6.26-10.38,1.3-1.83,2.41-3.81,2.77-6.09.19-1.21-1.11-2.07-2.64-1.71-3.63.84-7.04,2.23-10.4,3.84-4.4,2.1-8.63,4.49-12.78,7.02-4.72,2.88-9.25,6.04-13.73,9.27-2.84,2.05-5.53,4.28-8.32,6.39-1.56,1.18-3.03,2.5-4.5,3.8-5.03,4.46-10.07,8.93-14.69,13.83-3.66,3.88-7.28,7.79-10.68,11.91-2.32,2.82-4.63,5.65-6.46,8.8-2.12,3.64-4.1,7.4-3.77,11.85.22,2.94,1.64,5.16,4.05,6.81,2.73,1.87,5.83,2.54,9,3.24,3.25.71,6.5.83,9.78.83,3.67,0,7.34-.13,11,.03,6.76.29,13.53.02,20.29.25,3.19.11,6.38.34,9.57.77,4.15.56,8.15,1.7,12.21,2.59.69.15,1.17.08,1.73-.24,3.18-1.85,6.37-3.7,9.56-5.55,3.68-2.13,7.36-4.28,11.05-6.39,2.45-1.4,4.94-2.75,7.39-4.14,3.7-2.1,7.38-4.24,11.09-6.33,2.34-1.32,4.69-2.6,7.05-3.88,3.68-1.99,7.31-4.06,10.99-6.06,2.73-1.48,5.47-2.98,8.17-4.52,5.34-3.05,10.79-5.91,16.17-8.91,2.68-1.49,5.41-2.92,8.13-4.35,6.52-3.44,12.94-7.07,19.51-10.42,1.64-.84,1.95-1.39,1.53-3.19-.28-1.19-.2-2.39-.35-3.58-.33-2.68-.22-5.42-.53-8.11-.56-4.77-.7-9.56-.92-14.34-.09-2.02-.14-4.04-.14-6.06,0-2.54-.26-5.07-.28-7.62-.02-3.9,1.49-7.16,3.7-10.23,2.84-3.94,6.83-6.56,10.7-9.28,3.22-2.26,6.66-4.16,10.51-5.18.25-.07.56-.14.69-.43h4.45c2.09,1.15,3.81,2.68,4.79,4.9.78,1.77,1.38,3.61,1.62,5.51.39,3.09.32,6.22.5,9.33.22,3.67.29,7.34.48,11.01.1,1.99.02,3.97.17,5.95.3,3.8.32,7.62.49,11.53,3.4-1.74,6.79-3.44,10.13-5.2,4.62-2.43,9.51-4.22,14.35-6.13,5-1.97,9.98-3.99,15.02-5.86,4.38-1.62,8.85-3,13.24-4.58,6.14-2.21,12.39-4.09,18.65-5.91,6.04-1.76,12.15-3.28,18.3-4.64,3.43-.76,6.87-1.51,10.33-2.06,2.78-.45,5.54-1.05,8.37-1.23,2.19-.14,4.38-.27,6.56-.46,1.81-.15,3.61-.22,5.4-.14,3.58.16,7.16.38,10.66,1.33,2.45.66,4.98,1.07,7.38,1.87,2.93.98,5.84,2.01,8.65,3.35,2.95,1.41,5.8,2.93,8.49,4.77,3.14,2.15,6.09,4.54,8.62,7.38,3.12,3.5,5.79,7.35,7.8,11.59,1.74,3.68,3.06,7.54,3.84,11.55.55,2.83.91,5.7.68,8.6-.1,1.23-.47,2.41-1.26,3.36-1.56,1.88-3.19,2.02-5.21,1.25-4.83-1.85-9.78-3.33-14.65-5.06-3.32-1.18-6.68-2.28-10.02-3.4-4.56-1.52-9.11-3.11-13.74-4.41-2.81-.79-5.4-2.23-7.43-4.4-1.91-2.05-3.35-4.38-3.5-7.33-.1-1.93-1.06-3.58-2.25-5.01-2.61-3.14-6.02-4.89-10.03-5.7-3.75-.76-7.52-.76-11.28-.58-2.73.13-5.46.56-8.18,1-5.22.84-10.29,2.25-15.34,3.68-3.11.88-6.19,1.91-9.24,3.03-5.18,1.91-10.35,3.82-15.42,6.01-2.75,1.19-5.52,2.32-8.24,3.57-3.59,1.65-7.16,3.37-10.71,5.11-3.56,1.74-7.09,3.55-10.63,5.32-3.38,1.7-6.77,3.39-10.15,5.09-2.65,1.33-5.28,2.69-7.93,4.02-.38.19-.63.38-.41.84.03.06,0,.15,0,.22.07,3.28.01,6.57.26,9.84.23,2.97.02,5.95.41,8.9.35,2.59.32,5.19.41,7.79.09,2.69.22,5.37.3,8.06.11,3.63.29,7.26.43,10.9.15,3.71.3,7.41.45,11.12.13,3.45.3,6.89.44,10.34.14,3.52.21,7.05.47,10.56.29,3.91.39,7.83.67,11.73.18,2.41-.19,4.85.53,7.27,1.54-.4,3.05-1.14,4.5-1.89,2.42-1.24,4.94-2.23,7.4-3.38,3.26-1.52,6.57-2.93,9.86-4.37,2.96-1.3,5.92-2.62,8.92-3.82,2.87-1.15,5.64-2.67,8.76-3.06,2.7-.34,5.46-.41,7.59,1.66,1.23,1.19,2.12,2.71,2.18,4.54.14,4.5-.48,8.88-2.01,13.12-.78,2.17-2.28,3.8-4.05,5.26-3.08,2.56-6.88,3.15-10.54,4.24-3.79,1.14-7.67,1.98-11.42,3.25-2.46.84-5.07,1.24-7.54,2.07-3.52,1.18-7.21,1.76-10.7,3.07-.7.26-1.61.15-2.09.72-.52.61.14,1.39.1,2.11-.16,2.62.2,5.22.26,7.84.09,3.62.55,7.22.66,10.84.09,2.85.31,5.71.44,8.56.13,2.93.31,5.86.45,8.79.13,2.74.31,5.49.44,8.23.2,4.25.42,8.49.69,12.73.18,2.87.5,5.74.64,8.62.14,2.74.31,5.48.45,8.23.11,2.3.29,4.6.44,6.9.23,3.54.45,7.08.66,10.62.14,2.34.21,4.69.47,7,.39,3.48.64,6.96.87,10.45.13,1.93.26,3.86.45,5.78.32,3.15.46,6.31.79,9.46.23,2.17.3,4.38.56,6.55.28,2.26.51,4.53.77,6.79.2,1.73.31,3.48.51,5.22.27,2.34.57,4.68.82,7.01.31,2.92,1.05,5.75,1.39,8.65.11.91.63,1.76.36,2.8-2.67-1.25-5.35-2.33-8.09-3.21-1.1-.36-1.2-1.2-1.37-2.05-.63-3.2-1.15-6.42-1.93-9.6-.74-3.03-1.08-6.17-1.65-9.24-.47-2.54-1.17-5.03-1.57-7.59-.43-2.73-.97-5.45-1.55-8.15-.85-3.97-1.48-7.99-2.22-11.98-.62-3.32-1.43-6.6-1.92-9.93-.56-3.78-1.46-7.48-2.1-11.24-.65-3.82-1.23-7.66-2.12-11.44-.65-2.77-.93-5.61-1.42-8.42-.35-2.02-.8-4.01-1.15-6.03-.45-2.59-.84-5.19-1.29-7.78-.36-2.09-.8-4.16-1.17-6.25-.44-2.48-.8-4.98-1.29-7.45-.43-2.22-.64-4.47-1.21-6.68-.5-1.95-.69-3.98-1-5.97-.34-2.14-.66-4.28-1-6.41-.45-2.88-1.11-5.72-1.48-8.62-.32-2.53-.86-5.03-1.29-7.55-.05-.29,0-.59,0-.83-3.06.85-6.09,1.68-9.11,2.53-3.98,1.12-7.95,2.26-11.92,3.38-2.13.6-4.31,1.05-6.4,1.76-2.48.84-5.05,1.31-7.52,2.13-.28.09-.46.03-.7-.1-2.86-1.48-5.74-2.92-8.59-4.43-.21-.11-.75-.15-.64-.6.08-.31.49-.26.72-.39,2.51-1.53,5.25-2.6,7.88-3.88,3.03-1.48,6.1-2.93,9.16-4.37,2.38-1.12,4.77-2.26,7.12-3.46,3.14-1.6,6.43-2.91,9.57-4.51,2.35-1.2,4.79-2.21,7.14-3.41.8-.4.74-1,.57-1.54-.78-2.39-.8-4.9-1.26-7.34-.68-3.65-.95-7.36-1.75-11-.49-2.22-.62-4.51-.94-6.77-.34-2.39-.75-4.78-1.07-7.17-.36-2.72-.89-5.41-1.17-8.15-.25-2.48-.76-4.93-1.03-7.4-.24-2.23-.59-4.44-.93-6.65-.42-2.68-.76-5.37-1.11-8.06-.26-2.01-.4-4.05-.71-6.05-.29-1.89-.27-3.8-.78-5.68-.39-1.46-.36-3.02-.54-4.54-.29-2.45-.52-4.9-.84-7.34-.2-1.53-.23-3.08-.55-4.71-4.53,2.4-8.97,4.79-13.45,7.13-2.95,1.54-5.94,3-8.89,4.54-5.02,2.61-10.06,5.18-15.02,7.9-4.27,2.34-8.6,4.56-12.89,6.86-4.82,2.59-9.64,5.18-14.46,7.79-4.94,2.68-9.87,5.36-14.79,8.06-4.83,2.65-9.64,5.33-14.45,8-.37.21-.72.46-1.19.75,2.48,1.54,4.87,3.07,7.11,4.81,1.43,1.11,2.89,2.18,4.24,3.4,1.64,1.48,3.26,2.99,4.77,4.6,2.54,2.7,4.9,5.54,7.06,8.55,2.85,3.98,5.26,8.19,7.41,12.57,2.57,5.23,4.47,10.7,5.91,16.34.65,2.53,1.4,5.03,1.84,7.61.25,1.49.42,3.01.84,4.45.55,1.88.65,3.82,1.01,5.73.28,1.53.43,3.1.51,4.66.19,3.85.57,7.7.44,11.56-.13,3.77-.37,7.53-.67,11.29-.16,2.01-.47,4.02-.89,5.99-.74,3.5-1.41,7.03-2.5,10.42-.79,2.46-1.45,4.99-2.53,7.35-1.02,2.23-1.86,4.53-2.92,6.75-1.86,3.88-3.95,7.62-6.19,11.28-1.52,2.48-3.27,4.81-4.95,7.18-1.74,2.46-3.74,4.71-5.67,7.01-2.79,3.33-5.76,6.48-8.87,9.5-2.74,2.67-5.52,5.3-8.34,7.89-2.68,2.46-5.33,4.96-8.07,7.35-3.84,3.37-7.85,6.54-11.94,9.61-4.12,3.09-8.3,6.08-12.57,8.94-3.36,2.25-6.76,4.43-10.21,6.55-4.54,2.8-9.11,5.55-13.79,8.1-2.98,1.62-5.95,3.27-8.99,4.78-3.62,1.8-7.22,3.61-10.88,5.32-3.94,1.84-7.98,3.45-11.96,5.19-5.99,2.61-12.12,4.81-18.3,6.85-3.96,1.31-7.98,2.45-12,3.57-3.66,1.02-7.4,1.68-11.05,2.66-2.75.73-5.56,1.1-8.33,1.68-1.91.4-3.91.36-5.82.75-1.25.25-2.61-.16-3.76.62h-16.67c-.98-.84-2.22-.42-3.31-.62-3.7-.66-7.39-1.23-11-2.43-3.02-1.01-5.96-2.15-8.82-3.52-2.69-1.29-5.11-3.02-7.55-4.74-3.41-2.41-6.29-5.34-8.82-8.59-2.42-3.11-4.44-6.49-6-10.14-1.4-3.27-2.38-6.64-3.02-10.14-.14-.74.26-1.71-.61-2.28v-12.23ZM246.56,212.06c0-3.37-.06-6.14-.39-8.93-.22-1.87-.36-3.79-.83-5.58-1.01-3.82-1.59-7.76-3.22-11.41-.68-1.52-1.07-3.19-1.82-4.67-1.32-2.65-2.59-5.33-4.1-7.89-1.75-2.98-3.62-5.87-5.76-8.56-2.16-2.71-4.46-5.3-7.07-7.62-2.15-1.91-4.36-3.7-6.71-5.34-3.92-2.73-8.08-5-12.47-6.89-1.08-.46-1.88-.59-3.01.07-4.2,2.45-8.52,4.7-12.78,7.05-3.73,2.05-7.36,4.27-10.96,6.54-3.64,2.28-7.29,4.54-10.93,6.81-5.62,3.51-11.24,7-16.84,10.53-3.73,2.35-7.44,4.71-11.13,7.12-4.23,2.77-8.42,5.58-12.62,8.41-3.54,2.39-7.09,4.77-10.57,7.23-4.08,2.89-8.1,5.85-12.14,8.8-2.07,1.51-4.11,3.04-6.16,4.58-2.48,1.87-4.88,3.86-7.37,5.72-2.78,2.08-5.48,4.26-8.13,6.49-2.59,2.18-5.23,4.29-7.78,6.53-2.54,2.24-5.11,4.44-7.64,6.68-2.39,2.11-4.72,4.32-7.01,6.54-3.99,3.88-7.93,7.82-11.64,11.98-2.48,2.78-4.91,5.58-7.3,8.42-2.84,3.38-5.49,6.89-8.01,10.5-2.91,4.17-5.53,8.51-7.92,13-1.51,2.84-2.74,5.81-3.93,8.77-1.11,2.76-1.82,5.71-2.51,8.62-.64,2.69-.85,5.47-.87,8.22-.02,3.14.31,6.25,1.23,9.33.99,3.32,2.27,6.46,4.22,9.31,1.73,2.53,3.75,4.79,6.09,6.81,2.6,2.26,5.44,4.15,8.43,5.79,4.26,2.34,8.8,4.08,13.49,5.32,4.58,1.2,9.22,2.17,13.94,2.74,3.66.44,7.34.73,11.01.81,3.57.08,7.15.13,10.73-.13,3.17-.23,6.34-.48,9.51-.66,3.96-.23,7.81-1.11,11.7-1.68,4.24-.62,8.45-1.6,12.61-2.66,7.64-1.96,15.16-4.3,22.5-7.21,5.94-2.35,11.8-4.84,17.48-7.75,4.75-2.43,9.39-5.04,13.94-7.83,3.15-1.93,6.23-3.96,9.23-6.09,3.06-2.16,6.03-4.47,8.95-6.83,3.72-3.01,7.25-6.23,10.74-9.49,3.28-3.06,6.21-6.45,9.2-9.8,2.2-2.47,4.24-5.07,6.24-7.68,3.1-4.04,5.95-8.27,8.54-12.66,2.49-4.21,4.84-8.5,6.91-12.95,2.6-5.57,4.78-11.29,6.7-17.12,1.19-3.63,2.05-7.35,3.1-11.02,1.09-3.79,2.2-7.58,2.62-11.51.34-3.1.68-6.21.47-8.76Z"/>
  <path class="cls-4" d="M472.44,63.81c3.94-.02,7.76.71,11.58,1.65,5.84,1.44,11.45,3.4,16.83,6.1,2.76,1.38,5.35,2.98,7.72,4.94,1.02.84,1.72,1.93,2.27,3.08.62,1.3-.45,3.01-2.15,3.59-2.38.82-4.86.78-7.31.6-1.92-.14-3.84-.38-5.74-.78-2.64-.55-5.25-1.21-7.84-1.95-3.86-1.11-7.59-2.56-11.24-4.26-2.96-1.37-5.79-2.95-8.36-4.97-1.04-.82-2-1.74-2.74-2.86-1.12-1.71-.66-3.34,1.14-4.34,1.13-.63,2.38-.65,3.61-.79.73-.08,1.48-.02,2.22-.02Z"/>
  <path class="cls-1" d="M472.49,86.91c3.48.06,6.82.79,10.13,1.85,3.25,1.03,6.4,2.3,9.36,3.98,2.14,1.22,4.28,2.52,5.71,4.65,1.27,1.88.51,3.79-1.75,4.2-2.51.46-5.02.31-7.54-.1-3.59-.58-7.04-1.65-10.38-3.02-3.66-1.49-7.26-3.19-10.06-6.13-.4-.42-.77-.88-1.07-1.38-.84-1.4-.21-3.03,1.36-3.57.27-.09.56-.15.83-.23,1.12-.32,2.26-.2,3.4-.24Z"/>
  <path class="cls-2" d="M471.86,105.16c3.04-.15,5.64,1.21,7.94,3.1,1.15.94,2.14,2.27,1.88,3.96-.3,1.88-1.64,2.85-3.88,2.94-3.2.13-5.99-.92-8.45-2.95-.65-.54-1.2-1.1-1.64-1.84-1.59-2.69.15-4.99,3.05-5.2.33-.02.67,0,1.1,0Z"/>
  <g>
    <path class="cls-3" d="M3.04,422.9c0-16.47,9.49-25.96,29.82-25.96,17.06,0,29.22,4.9,29.22,24.48v7.42h-22.25v-4.01c0-5.34-1.63-8.61-6.82-8.61-4.15,0-6.23,2.37-6.23,5.49v.3c0,5.49,5.79,11.42,10.68,16.02l10.68,9.79c10.83,10.09,14.98,18.99,14.98,33.23v.45c0,15.73-6.82,25.37-29.82,25.37s-28.63-8.01-28.63-29.67v-5.49h21.21v6.97c0,5.93,2.52,8.9,7.27,8.9s6.38-3.26,6.38-7.42v-.15c0-5.49-2.37-8.75-9.05-14.98l-12.16-11.42c-10.68-9.94-15.28-17.66-15.28-30.41v-.3Z"/>
    <path class="cls-3" d="M71.28,421.57h22.85v59.79c0,5.49.59,7.42,4.15,7.42,2.23,0,4.6-.3,7.42-1.19v-66.02h22.85v84.57h-19.14l-1.34-5.49c-8.01,4.3-14.39,6.53-20.77,6.38-10.53,0-16.02-4.9-16.02-22.4v-63.05Z"/>
    <path class="cls-3" d="M195.89,481.5c0,19.73-4.6,25.37-16.47,25.37-4.45,0-9.94-1.04-20.62-6.68l-1.33,5.93h-19.14v-112.31h22.85v31.6c5.34-3.12,11.87-4.6,16.91-4.6,12.02,0,17.8,4.45,17.8,29.82v30.86ZM173.04,449.9c0-9.05-1.78-10.98-6.38-10.98-2.08,0-3.56.45-5.49.89v47.62c2.37.89,3.86,1.19,5.49,1.19,4.75,0,6.38-2.52,6.38-10.83v-27.89Z"/>
    <path class="cls-3" d="M205.38,393.82h22.85v112.31h-22.85v-112.31Z"/>
    <path class="cls-3" d="M238.01,414.59v-20.18h22.85v20.03l-22.85.15ZM238.01,506.13v-84.57h22.85v84.57h-22.85Z"/>
    <path class="cls-3" d="M270.94,506.13v-108.45h48.51v20.77h-24.92v23.74h23.59l.15,18.1h-23.74v45.84h-23.59Z"/>
    <path class="cls-3" d="M325.09,466.67v-6.97c0-28.93,4.6-38.87,29.37-38.87s28.78,11.13,28.78,38.43v7.12c0,30.71-5.34,40.5-28.78,40.5-25.81,0-29.37-11.57-29.37-40.21ZM360.4,477.5v-27.3c0-8.46-.74-11.13-6.23-11.13s-6.23,2.52-6.23,11.28v27.3c0,8.01.74,10.98,6.38,10.98,5.04,0,6.08-2.37,6.08-11.13Z"/>
    <path class="cls-3" d="M392.73,506.13v-84.57h19.43l1.63,8.31c6.08-6.97,10.68-9.05,15.58-9.05v23c-3.56.15-8.9,1.04-13.8,2.67v59.64h-22.84Z"/>
    <path class="cls-3" d="M436.05,506.13v-84.57h19.14l1.33,5.64c8.01-4.3,14.39-6.53,20.77-6.38,6.08,0,10.53,1.63,13.2,6.53,8.16-4.45,14.69-6.68,21.21-6.53,10.53,0,16.02,4.9,16.02,22.25v63.05h-22.85v-59.64c0-5.64-.59-7.57-4.15-7.57-2.23,0-4.6.45-7.42,1.19v66.02h-22.85v-59.64c0-5.64-.59-7.57-4.15-7.57-2.23,0-4.6.45-7.42,1.19v66.02h-22.84Z"/>
  </g>
</svg>